<svg width="75" height="22" viewBox="0 0 75 22" fill="none" xmlns="http://www.w3.org/2000/svg">
<path fill-rule="evenodd" clip-rule="evenodd" d="M37.485 20.9821C43.2744 20.9726 47.9754 16.2716 47.985 10.4821C47.9946 4.69269 43.3091 0.00713605 37.5197 0.016671C31.7303 0.0262059 27.0293 4.72722 27.0197 10.5167C27.0101 16.3061 31.6956 20.9917 37.485 20.9821ZM37.5438 1.82344L37.5506 1.81223L37.5506 1.83462L42.8638 10.6449L42.8676 10.6466L37.5184 13.8081L37.5184 13.8049L37.5108 13.8093L37.483 13.7817L32.1826 10.6673L37.5337 1.84025L37.5404 1.81768L37.5438 1.82344ZM37.5238 14.8203L32.1902 11.6874L37.4968 19.1561L37.5062 19.1837L37.5113 19.1765L37.5143 19.1807L37.5143 19.1723L42.8713 11.6634L37.5238 14.8203Z" fill="white"/>
<path fill-rule="evenodd" clip-rule="evenodd" d="M10.4819 21.0241C16.2809 21.0142 20.99 16.3051 21 10.5061C21.01 4.70701 16.3171 0.0140087 10.5181 0.0239415C4.71912 0.0338744 0.0100113 4.74298 1.59372e-05 10.542C-0.00997945 16.3411 4.68292 21.0341 10.4819 21.0241ZM10.4603 11.7797C11.307 11.7782 11.6867 11.7549 11.7601 11.7493L11.7577 11.7487C14.3556 11.6291 16.2942 11.1727 16.2951 10.6315C16.296 10.0903 14.3584 9.64051 11.7615 9.52925L11.7585 11.2987C11.6856 11.3055 11.2808 11.3399 10.4727 11.3413C9.79921 11.3424 9.31191 11.3145 9.14173 11.3025L9.14478 9.5325C6.54193 9.65329 4.5985 10.1091 4.59757 10.6515C4.59663 11.194 6.5385 11.6437 9.14095 11.7537C9.30869 11.7614 9.78682 11.7808 10.4603 11.7797ZM11.7643 9.3456L11.7643 9.34618L11.7637 9.34557C11.7639 9.34558 11.7641 9.34559 11.7643 9.3456ZM11.767 7.76229L11.7643 9.3456C14.7043 9.47653 16.9126 10.0556 16.9114 10.7541C16.9102 11.4527 14.6978 12.0393 11.7588 12.1797L11.75 17.2571L9.13085 17.2616L9.13959 12.186C6.19432 12.0551 3.98023 11.4761 3.98143 10.7769C3.98264 10.0777 6.19874 9.49041 9.14448 9.35005L9.14721 7.76677L5.52334 7.77298L5.5275 5.35765L15.3957 5.34075L15.3915 7.75608L11.767 7.76229Z" fill="white"/>
<path fill-rule="evenodd" clip-rule="evenodd" d="M54.3149 7.96191C55.719 2.33395 61.4161 -1.08546 67.0407 0.314486C72.6654 1.71846 76.0893 7.4148 74.6851 13.0387C73.285 18.6667 67.5839 22.0901 61.9593 20.6861C56.3346 19.2822 52.9107 13.5858 54.3149 7.96191ZM67.6563 10.6974C68.4087 10.5204 68.976 10.0256 69.1289 9.00382C69.3381 7.6079 68.2759 6.85562 66.8154 6.34875L67.2862 4.45801L66.1355 4.17239L65.6768 6.01485C65.3711 5.93842 65.0653 5.86601 64.7555 5.79762L65.2182 3.94309L64.0675 3.65747L63.5968 5.5482L63.5967 5.54819C63.3473 5.49187 63.0978 5.43556 62.8605 5.37522V5.3712L61.2713 4.97294L60.9655 6.20392C60.9655 6.20392 61.8184 6.40104 61.8023 6.41311C62.269 6.52977 62.3535 6.83953 62.3374 7.08493L61.7983 9.24117C61.8305 9.24921 61.8748 9.26531 61.919 9.2814L61.7983 9.24921L61.046 12.2704C60.9896 12.4112 60.8448 12.6244 60.5189 12.5439C60.531 12.56 59.682 12.3347 59.682 12.3347L59.1107 13.6542L60.6114 14.0283C60.6841 14.0473 60.7565 14.0662 60.8286 14.0851C61.032 14.1384 61.2332 14.1911 61.4322 14.2416L60.9534 16.1564L62.1041 16.4421L62.5748 14.5473C62.8086 14.6102 63.0379 14.6687 63.2628 14.726C63.3398 14.7457 63.4162 14.7651 63.4921 14.7846L63.0214 16.6714L64.1721 16.957L64.6509 15.0461C66.6143 15.4203 68.0908 15.2714 68.7145 13.4933C69.2174 12.0612 68.6903 11.2365 67.6563 10.6974ZM64.4445 7.16113L63.8691 9.4622C63.9253 9.47606 63.9915 9.49365 64.0658 9.5134L64.0658 9.51342C64.8538 9.72291 66.5526 10.1745 66.8504 8.98348C67.1587 7.76152 65.4861 7.39259 64.6758 7.21385C64.5871 7.19429 64.5088 7.17701 64.4445 7.16113ZM63.577 10.6191L62.9453 13.1535C63.0101 13.1696 63.0861 13.1896 63.1712 13.212C64.1117 13.4597 66.1652 14.0005 66.4899 12.6909C66.8256 11.3556 64.8428 10.9074 63.8677 10.687C63.7559 10.6617 63.6573 10.6394 63.577 10.6191Z" fill="white"/>
</svg>
