<svg width="59" height="39" viewBox="0 0 59 39" fill="none" xmlns="http://www.w3.org/2000/svg">
<path opacity="0.5" d="M23.3239 19.5C23.3219 17.0536 23.8768 14.6388 24.9465 12.4384C26.0162 10.238 27.5727 8.3096 29.4982 6.79916C27.1134 4.926 24.2494 3.7612 21.2335 3.43787C18.2177 3.11454 15.1716 3.64574 12.4436 4.97075C9.71549 6.29576 7.41543 8.36113 5.80626 10.9308C4.1971 13.5005 3.34375 16.4708 3.34375 19.5022C3.34375 22.5337 4.1971 25.504 5.80626 28.0736C7.41543 30.6433 9.71549 32.7087 12.4436 34.0337C15.1716 35.3587 18.2177 35.8899 21.2335 35.5666C24.2494 35.2432 27.1134 34.0784 29.4982 32.2053C27.5721 30.6944 26.0153 28.7652 24.9455 26.564C23.8758 24.3628 23.3213 21.9471 23.3239 19.5Z" fill="white"/>
<path d="M54.1106 29.5131V28.9925H54.3351V28.8848H53.8008V28.9925H54.0118V29.5131H54.1106ZM55.1479 29.5131V28.8848H54.9863L54.7977 29.3336L54.6091 28.8848H54.4474V29.5131H54.5642V29.0374L54.7393 29.4458H54.8605L55.0356 29.0374V29.5131H55.1479Z" fill="white"/>
<path d="M55.6549 19.5005C55.6549 22.5321 54.8013 25.5026 53.1919 28.0724C51.5824 30.6422 49.282 32.7075 46.5536 34.0323C43.8251 35.3571 40.7788 35.888 37.7628 35.5642C34.7467 35.2404 31.8827 34.075 29.498 32.2013C31.4228 30.6895 32.9788 28.7606 34.0488 26.56C35.1188 24.3595 35.6748 21.9448 35.6748 19.4982C35.6748 17.0516 35.1188 14.6369 34.0488 12.4364C32.9788 10.2359 31.4228 8.30696 29.498 6.79517C31.8827 4.92143 34.7467 3.75606 37.7628 3.43226C40.7788 3.10847 43.8251 3.63933 46.5536 4.96415C49.282 6.28897 51.5824 8.3543 53.1919 10.9241C54.8013 13.4938 55.6549 16.4643 55.6549 19.496V19.5005Z" fill="white"/>
<path opacity="0.7" fill-rule="evenodd" clip-rule="evenodd" d="M29.4968 6.79492H29.4912L29.4966 6.79916C27.5711 8.3096 26.0146 10.238 24.9449 12.4384C23.8752 14.6388 23.3203 17.0536 23.3223 19.5C23.3197 21.9471 23.8742 24.3628 24.944 26.564C26.0127 28.7632 27.5676 30.6908 29.4913 32.201H29.4968C31.4214 30.6893 32.9773 28.7605 34.0472 26.56C35.1172 24.3595 35.6732 21.9448 35.6732 19.4982C35.6732 17.0516 35.1172 14.6369 34.0472 12.4364C32.9773 10.2359 31.4212 8.30696 29.4965 6.79517C29.4966 6.79509 29.4967 6.79501 29.4968 6.79492Z" fill="white"/>
</svg>
