<svg width="59" height="16" viewBox="0 0 59 16" fill="none" xmlns="http://www.w3.org/2000/svg">
<path fill-rule="evenodd" clip-rule="evenodd" d="M5.38029 0.00273032C5.90008 -0.000404622 7.44487 -0.140671 8.09922 2.08575C8.53999 3.58549 9.24212 6.04213 10.2056 9.45568H10.598C11.6312 5.85688 12.341 3.40023 12.7273 2.08575C13.3885 -0.163863 15.0414 0.00277441 15.7026 0.00277441L20.8036 0.00278082V16H15.6045V6.57256H15.2559L12.3576 16H8.44596L5.54773 6.56557H5.19909V16H0V0.00278082L5.38029 0.00273032ZM28.2694 0.00278082V9.43721H28.6841L32.2096 1.67935C32.8939 0.135509 34.3525 0.00278082 34.3525 0.00278082H39.3836V16H34.076V6.56557H33.6612L30.2049 14.3234C29.5205 15.8603 27.9929 16 27.9929 16H22.9617V0.00278082H28.2694ZM57.7293 7.60476C56.989 9.71989 54.6639 11.2347 52.0898 11.2347H46.5236V16H41.4764V7.60476H57.7293Z" fill="white"/>
<path fill-rule="evenodd" clip-rule="evenodd" d="M52.3315 0.00292969H41.21C41.4746 3.56445 44.5169 6.61335 47.6663 6.61335H58.0783C58.6792 3.6533 56.6107 0.00292969 52.3315 0.00292969Z" fill="white"/>
</svg>
