<svg width="96" height="14" viewBox="0 0 96 14" fill="none" xmlns="http://www.w3.org/2000/svg">
<path d="M24.9832 3.49731H27.9928V11.5723H26.1248V5.13243H26.0729C25.8913 5.96256 25.7356 6.54114 25.6578 6.84301L24.2308 11.5723H22.8298L21.4028 6.84301C21.3509 6.71723 21.2731 6.49083 21.2212 6.21412C21.1434 5.9374 21.0915 5.68585 21.0396 5.45945L20.9618 5.13243H20.9099V11.5974H19.0938V3.49731H22.1033L23.1411 7.24549C23.1671 7.39643 23.219 7.59767 23.2968 7.89954C23.3746 8.20141 23.4265 8.45296 23.4784 8.65421L23.5562 8.98123H23.6081C23.7897 8.15109 23.8935 7.57252 23.9973 7.27065L24.9832 3.49731Z" fill="white"/>
<path d="M32.5082 5.43433C33.4941 5.43433 34.2983 5.71104 34.8691 6.26446C35.4399 6.81788 35.7253 7.5977 35.7253 8.57877C35.7253 9.55984 35.4399 10.3145 34.8691 10.8931C34.2983 11.4465 33.52 11.7484 32.5082 11.7484C31.4963 11.7484 30.718 11.4717 30.1472 10.8931C29.5764 10.3145 29.291 9.55984 29.291 8.57877C29.291 7.5977 29.5764 6.84304 30.1472 6.26446C30.718 5.71104 31.4963 5.43433 32.5082 5.43433ZM32.5082 10.4151C32.9233 10.4151 33.2606 10.2642 33.4941 9.96233C33.7276 9.66046 33.8573 9.20766 33.8573 8.60393C33.8573 8.00019 33.7276 7.54739 33.4941 7.24553C33.2606 6.94366 32.9233 6.79273 32.5082 6.79273C32.093 6.79273 31.7558 6.94366 31.5223 7.24553C31.2888 7.54739 31.185 8.00019 31.185 8.60393C31.185 9.20766 31.2888 9.66046 31.5223 9.96233C31.7558 10.2642 32.0671 10.4151 32.5082 10.4151Z" fill="white"/>
<path d="M38.6328 5.58526V6.39024H38.6847C39.1517 5.76135 39.8004 5.43433 40.6306 5.43433C41.2792 5.43433 41.7981 5.61041 42.1873 5.98775C42.5765 6.36508 42.784 6.9185 42.784 7.64802V11.5974H40.9419V8.07566C40.9419 7.64802 40.8641 7.34615 40.6825 7.1449C40.5009 6.96882 40.2414 6.86819 39.9041 6.86819C39.5669 6.86819 39.2815 6.99397 39.0739 7.24553C38.8404 7.49708 38.7366 7.84926 38.7366 8.32722V11.5723H36.8945V5.58526H38.6328Z" fill="white"/>
<path d="M50.1256 9.73545C50.0996 9.98701 50.0477 10.2134 49.918 10.4398C49.8142 10.6662 49.6326 10.8675 49.3991 11.0687C49.1656 11.2699 48.8543 11.4209 48.4651 11.5467C48.076 11.6724 47.6349 11.7227 47.116 11.7227C46.1301 11.7227 45.3518 11.446 44.781 10.8675C44.2102 10.314 43.9248 9.53421 43.9248 8.5783C43.9248 7.59723 44.2102 6.8174 44.755 6.26398C45.2999 5.71056 46.0782 5.40869 47.0641 5.40869C48.0241 5.40869 48.7765 5.6854 49.3472 6.23883C49.918 6.79225 50.1775 7.57207 50.1775 8.60345C50.1775 8.75438 50.1775 8.88016 50.1775 8.95563H45.8188C45.8188 9.45874 45.9225 9.83607 46.156 10.1128C46.3895 10.3895 46.7268 10.5153 47.1419 10.5153C47.4792 10.5153 47.7646 10.4398 47.9203 10.2889C48.1019 10.1379 48.2057 9.96185 48.2576 9.73545H50.1256ZM47.9722 6.99349C47.7387 6.76709 47.4533 6.64132 47.0901 6.64132C46.7268 6.64132 46.4414 6.76709 46.2079 6.99349C45.9744 7.21989 45.8707 7.52176 45.8447 7.87394H48.3095C48.3095 7.52176 48.2057 7.21989 47.9722 6.99349Z" fill="white"/>
<path d="M54.2279 10.3138C54.4614 10.3138 54.6689 10.2887 54.8246 10.2384V11.5968C54.5392 11.6974 54.1241 11.7477 53.6571 11.7477C52.9825 11.7477 52.4896 11.6219 52.2042 11.3955C51.9188 11.1691 51.7631 10.7415 51.7631 10.1377V6.76689H50.8291V5.60973H51.7631V3.94946H53.6052V5.60973H54.8506V6.76689H53.6052V9.73525C53.6052 9.96165 53.6571 10.1126 53.7349 10.188C53.8387 10.2635 54.0203 10.3138 54.2279 10.3138Z" fill="white"/>
<path d="M55.9639 4.42824V3.01953H57.8059V4.42824H55.9639ZM55.9639 11.5976V5.5854H57.8059V11.5976H55.9639Z" fill="white"/>
<path d="M65.2292 11.5966H63.1277L62.0121 9.76029L60.8445 11.5966H58.7949L60.8705 8.57798L58.9506 5.60962H61.0002L62.038 7.3202L63.0758 5.60962H65.0735L63.1277 8.52767L65.2292 11.5966Z" fill="white"/>
<path d="M74.7241 11.5984L73.3231 6.59244C73.1155 5.83777 72.9339 4.90701 72.9339 4.90701H72.882C72.882 4.90701 72.7004 5.83777 72.4929 6.59244L71.1178 11.5732H70.0281L67.7969 3.47314H68.8866L70.1838 8.55457C70.3654 9.30924 70.547 10.2652 70.547 10.2652H70.5989C70.5989 10.2652 70.7805 9.3344 70.9881 8.57973L72.3631 3.47314H73.375L74.75 8.57973C74.9576 9.3344 75.1392 10.2652 75.1392 10.2652H75.1911C75.1911 10.2652 75.3727 9.3344 75.5543 8.57973L76.8775 3.47314H77.9931L75.7359 11.5984H74.7241Z" fill="white"/>
<path d="M82.8714 10.8679C82.9751 10.8679 83.1049 10.8428 83.1827 10.8176V11.5974C83.1049 11.6226 82.8454 11.6478 82.6119 11.6478C81.9893 11.6478 81.652 11.3962 81.6001 10.8428H81.5482C81.1071 11.522 80.1991 11.7232 79.4986 11.7232C78.4089 11.7232 77.5527 11.044 77.5527 9.93717C77.5527 8.65424 78.4608 8.2266 79.4986 8.07566L80.692 7.89957C81.2369 7.82411 81.5741 7.62286 81.5741 7.11975C81.5741 6.59148 81.1071 6.2393 80.2769 6.2393C79.4726 6.2393 78.824 6.54117 78.7721 7.34615H77.8122C77.8122 6.06322 78.8759 5.43433 80.2769 5.43433C81.7039 5.43433 82.56 6.06321 82.56 7.11975V10.4906C82.56 10.7925 82.6898 10.8679 82.8714 10.8679ZM81.5741 8.40268C81.4444 8.55362 81.0034 8.62908 80.6142 8.70455L79.784 8.83033C79.2132 8.93095 78.5386 9.15735 78.5386 9.96233C78.5386 10.6164 78.9797 10.9686 79.6542 10.9686C80.4326 10.9686 81.5741 10.5661 81.5741 9.20766V8.40268Z" fill="white"/>
<path d="M83.9336 2.76709H84.8157V11.5967H83.9336V2.76709Z" fill="white"/>
<path d="M85.7754 2.76709H86.6575V11.5967H85.7754V2.76709Z" fill="white"/>
<path d="M92.6262 9.83604C92.5743 10.6159 91.9516 11.7227 90.2393 11.7227C88.6047 11.7227 87.541 10.4901 87.541 8.60342C87.541 6.71675 88.5788 5.48413 90.1095 5.48413C91.6143 5.48413 92.704 6.64129 92.704 8.60342C92.704 8.67889 92.704 8.75435 92.704 8.80466H88.475C88.475 10.0624 89.1496 10.9429 90.2393 10.9429C91.303 10.9429 91.6143 10.2637 91.6922 9.83604H92.6262ZM88.501 8.05H91.7959C91.744 7.1444 91.1473 6.26395 90.1355 6.26395C89.1496 6.26395 88.5528 7.1444 88.501 8.05Z" fill="white"/>
<path d="M95.9964 10.792V11.597C95.8407 11.6725 95.4775 11.7228 95.1143 11.7228C94.0765 11.7228 93.6354 11.3706 93.6354 10.3392V6.3395H92.5977V5.60999H93.6354V3.89941H94.6213V5.60999H95.8148V6.3395H94.6213V10.2386C94.6213 10.7166 94.777 10.8927 95.2959 10.8927C95.5553 10.9178 95.8667 10.8424 95.9964 10.792Z" fill="white"/>
<path fill-rule="evenodd" clip-rule="evenodd" d="M8.79763 13.7604C8.27975 13.8754 7.74053 13.9362 7.18669 13.9362C3.21759 13.9362 0 10.8165 0 6.96809C0 3.11972 3.21759 0 7.18669 0C11.1558 0 14.3734 3.11972 14.3734 6.96809C14.3734 9.86225 12.5536 12.3443 9.96292 13.3972C7.43487 12.1856 5.73434 9.77766 5.73434 6.96998C5.73434 4.17771 7.47264 1.73762 9.98928 0.555305C9.62605 0.404372 9.26283 0.278594 8.87366 0.203127C5.89001 1.20935 3.76254 3.87584 3.76254 6.99513C3.76254 10.0879 5.85394 12.7107 8.79763 13.7604Z" fill="white"/>
</svg>
