<svg width="53" height="32" viewBox="0 0 53 32" fill="none" xmlns="http://www.w3.org/2000/svg">
<path fill-rule="evenodd" clip-rule="evenodd" d="M39.5231 19.7665C41.9287 19.7665 43.7136 18.2688 43.7136 15.9976C43.7136 13.7993 42.3954 12.3719 40.1925 12.3719C39.1769 12.3719 38.3383 12.7366 37.7049 13.3617C37.8562 12.0672 38.9333 11.1191 40.1232 11.1191C40.3976 11.1191 42.4621 11.1139 42.4621 11.1139L43.6289 8.84521C43.6289 8.84521 41.0388 8.90512 39.8335 8.90512C37.0817 8.95461 35.2224 11.4941 35.2224 14.5806C35.2224 18.1777 37.0356 19.7665 39.5231 19.7665ZM39.5385 14.3827C40.431 14.3827 41.0516 14.9792 41.0516 15.9976C41.0516 16.9144 40.5002 17.6698 39.5385 17.6724C38.6179 17.6724 37.9998 16.9717 37.9998 16.0132C37.9998 14.9922 38.6179 14.3827 39.5385 14.3827ZM52.9999 11.851V19.493H50.3123V14.1326H47.7273V19.493H45.0396V11.851H52.9999ZM31.4556 17.3754C32.4044 17.3051 33.0379 16.9326 33.0379 16.9326L34.0329 18.8054C33.3969 19.2195 32.3506 19.4904 31.594 19.519C28.8859 19.5685 27.001 17.8963 27.001 15.4558C27.001 13.0465 29.0039 11.3326 31.594 11.3326C32.6198 11.3326 33.502 11.6113 34.1637 12.1218C33.8021 12.773 33.1045 14.0727 33.1045 14.0727C33.1045 14.0727 32.1505 13.5648 31.4299 13.5648C30.2528 13.5648 29.3962 14.2576 29.3962 15.4688C29.3962 16.7086 30.3656 17.4093 31.4556 17.3754Z" fill="white"/>
<path d="M0 6.80273L3.72625 13.5696V17.6954L0.00512904 24.4466L0 6.80273Z" fill="white"/>
<path d="M14.3086 11.106L17.8015 8.93115L24.9488 8.92334L14.3086 15.5444V11.106Z" fill="white"/>
<path d="M14.2873 6.76427L14.3078 15.7217L10.5713 13.3905V0L14.2873 6.76427Z" fill="white"/>
<path d="M24.9454 8.92613L17.7981 8.93394L14.2873 6.76427L10.5713 0L24.9454 8.92613Z" fill="white"/>
<path d="M14.3078 24.4861V20.1389L10.5713 17.8521L10.5739 31.2556L14.3078 24.4861Z" fill="white"/>
<path d="M17.7927 22.3316L3.72625 13.5696L0 6.80273L24.9323 22.3212L17.7927 22.3316Z" fill="white"/>
<path d="M10.5771 31.2556L14.3111 24.4861L17.7937 22.332L24.9333 22.3242L10.5771 31.2556Z" fill="white"/>
<path d="M0.00585938 24.4473L10.605 17.8524L7.04034 15.6306L3.72698 17.6935L0.00585938 24.4473Z" fill="white"/>
</svg>
