<svg width="111" height="20" viewBox="0 0 111 20" fill="none" xmlns="http://www.w3.org/2000/svg">
<path fill-rule="evenodd" clip-rule="evenodd" d="M26.811 5.33614L24.0506 3.6974C23.8534 3.92115 23.6688 4.15535 23.4971 4.39949L26.8107 6.36805L33.9383 2.13707C33.6393 1.95624 33.3293 1.79579 33.0101 1.65674L26.811 5.33614ZM23.0198 5.15191L26.8048 7.39942V7.39991L34.7355 2.69158C34.9793 2.88352 35.2126 3.08937 35.4338 3.30915L26.8048 8.43068L22.6302 5.95345C22.7456 5.67898 22.8755 5.41196 23.0198 5.15191ZM26.8112 9.46206L22.3312 6.80433C22.2429 7.10105 22.1708 7.40269 22.1153 7.70781L26.8112 10.4953L36.5661 4.7045C36.4279 4.48945 36.2803 4.28106 36.1237 4.07998C36.0978 4.04693 36.0717 4.01411 36.0453 3.98152L26.8112 9.46206ZM21.9979 8.6706L26.8101 11.5272L37.0008 5.47784C37.5412 6.5714 37.839 7.77573 37.8727 9.00325C37.8842 9.45469 37.8601 9.90635 37.8006 10.3537C37.4669 12.7859 36.0995 14.9367 34.0723 16.2181C32.886 16.9621 31.5333 17.3752 30.1464 17.417H29.704C29.2177 17.4026 28.7426 17.3439 28.2823 17.2439C27.2165 17.0093 26.2083 16.552 25.3197 15.8999C24.4007 15.2255 23.6311 14.3564 23.0622 13.3506C22.5986 12.5329 22.2771 11.6376 22.1123 10.7053C22.0185 10.1762 21.9738 9.63971 21.9801 9.10319C21.9825 8.958 21.9882 8.8138 21.9979 8.6706Z" fill="white"/>
<path d="M57.651 2.77705C57.651 2.28354 56.8248 1.8396 55.9128 1.8396H55.9097H55.9072C54.9952 1.8396 54.1691 2.28354 54.1691 2.77705L54.1874 2.89866L54.5515 5.00155L54.1858 5.2151L53.2396 5.77104H53.2428C53.2428 5.77104 53.0297 5.88063 52.9311 5.94861C52.5709 6.2006 52.4946 6.56771 52.7037 6.71972C52.7554 6.42052 52.9907 6.10699 53.4312 6.10699C53.7485 6.10699 53.9902 6.27178 54.1858 6.51895C54.2359 6.58131 54.2836 6.64771 54.3281 6.71972C54.383 6.81009 54.4379 6.88926 54.4928 6.96606H52.0557C52.2346 7.32838 52.4047 7.71234 52.4047 8.12912V13.5555C52.4047 14.8689 53.409 15.496 54.4951 15.496C55.3348 15.496 55.4477 15.4577 55.9112 15.9216C56.3724 15.4569 56.4853 15.496 57.3258 15.496C58.4127 15.496 59.4154 14.8689 59.4154 13.5555V8.12912C59.4154 7.71234 59.5856 7.32838 59.7652 6.96606H57.3274C57.3815 6.89009 57.4363 6.81009 57.4912 6.71972C57.5365 6.64771 57.5834 6.58131 57.6327 6.51895C57.8299 6.27095 58.0708 6.10699 58.3881 6.10699C58.8286 6.10699 59.0631 6.41972 59.1156 6.71972C59.3247 6.56771 59.2492 6.2006 58.8866 5.94861C58.7896 5.88063 58.5765 5.77104 58.5765 5.77104H58.5797L57.6335 5.2151L57.2694 5.00155L57.6335 2.89866L57.651 2.77705ZM54.5277 3.02182L55.8079 3.45856V5.48148L54.8657 4.98157L54.5277 3.02182ZM54.7925 7.31881C55.0024 7.52916 55.2084 7.65959 55.404 7.73156C55.3785 7.83312 55.3451 8.04271 55.4397 8.25148C55.5169 8.41943 55.6568 8.54903 55.858 8.63544C55.8803 8.84341 56.0107 9.15615 56.3724 9.29456C56.2142 9.45532 56.0599 9.60646 55.9971 9.66808L54.5301 9.6449C54.4967 9.62805 54.4403 9.59049 54.4148 9.5369C54.4116 9.5297 54.4069 9.52571 54.4045 9.51768L54.6438 9.55687C54.6494 9.5577 54.6541 9.5577 54.6589 9.5577C54.705 9.5577 54.7456 9.52571 54.7535 9.47774C54.7615 9.42411 54.7257 9.37531 54.6741 9.36732L54.3799 9.32094L54.7066 8.18591L54.3973 7.53078L53.9012 8.05869L53.871 9.23935L53.5378 9.18656C53.4861 9.17616 53.4368 9.21456 53.4281 9.26656C53.4201 9.31852 53.4551 9.36732 53.5076 9.37693L53.6475 9.39853C53.5974 9.42732 53.5648 9.4497 53.5608 9.4529L53.5322 9.47291L53.5243 9.50811C53.4432 9.83923 53.6268 10.1536 53.8248 10.2944L53.8176 10.336C53.8097 10.3872 53.8208 10.4367 53.851 10.4784C53.8797 10.5208 53.9242 10.5464 53.9735 10.5551C53.9839 10.5568 53.995 10.5576 54.0045 10.5576C54.0904 10.5576 54.1652 10.4976 54.1866 10.4104C54.2606 10.4191 54.3281 10.4208 54.3742 10.4208H54.4132L56.3382 10.7703L56.3708 10.7487C56.5243 10.6407 57.1087 10.212 57.3003 10.0704C57.3528 10.116 57.4117 10.1576 57.4832 10.192C57.4212 10.4016 57.4172 10.7239 57.6629 10.9783H52.757V8.12987C52.757 7.85392 52.6766 7.57638 52.582 7.32044L54.7925 7.31881ZM57.1715 9.92481C56.9767 10.0688 56.4758 10.4367 56.2945 10.5648L54.5452 10.2488C54.5492 10.2328 54.5531 10.2176 54.5571 10.2016C54.5802 10.1104 54.6033 9.98563 54.6049 9.83923L56.075 9.86328L56.1029 9.83445C56.1251 9.81206 56.5911 9.35934 56.8288 9.09853C56.8853 9.16975 56.9561 9.23777 57.0483 9.29772C57.0165 9.47054 57.03 9.71688 57.1715 9.92481ZM54.2431 9.62011C54.2844 9.70727 54.3592 9.76568 54.4108 9.79846C54.4093 9.88004 54.4013 10.0072 54.3799 10.1192C54.3751 10.144 54.3687 10.1672 54.3615 10.1904C54.3576 10.2048 54.3536 10.2168 54.3504 10.2264C54.2733 10.2264 54.1214 10.2168 53.9974 10.1712C53.8598 10.12 53.6547 9.86644 53.7024 9.58728C53.762 9.5505 53.8996 9.47291 54.0284 9.47291C54.1278 9.47212 54.1954 9.5193 54.2431 9.62011ZM54.061 9.26893L54.0904 8.13549L54.3433 7.86594L54.5023 8.20031L54.189 9.28811L54.061 9.26893ZM57.1556 15.1449C57.0602 15.1449 56.972 15.1465 56.8924 15.1497L57.1007 14.4978C57.1334 14.4074 56.9688 14.2914 56.9012 14.1898C57.0038 14.2546 57.2694 14.3962 57.3974 14.453C57.3838 14.4738 57.1556 15.1449 57.1556 15.1449ZM57.8092 14.4042L57.6733 15.1177C57.5866 15.1297 57.4944 15.1361 57.3998 15.1401L57.5429 14.4538C57.5858 14.2498 57.0411 14.1866 56.7724 13.7859C56.6412 13.9347 56.3939 13.9786 56.1458 13.9786C55.9192 13.9786 55.6926 13.9419 55.555 13.9147C55.52 13.9091 55.4866 13.9051 55.4541 13.9051C55.3745 13.9051 55.3022 13.9299 55.2521 14.0147L55.2123 14.0818L54.4705 13.9058L54.286 14.213C54.2598 14.2626 54.2582 14.305 54.3003 14.3514L54.3504 14.4066C54.3162 14.5154 54.162 14.6794 54.162 14.6794L54.0514 14.541C53.964 14.4426 53.9783 14.2635 54.0697 14.097L54.3639 13.5971L54.9921 13.6883L54.8943 13.4643C54.7631 13.1684 54.9627 12.7916 54.9841 12.5749C54.977 12.6404 54.9173 12.6549 54.8473 12.6549C54.7838 12.6549 54.713 12.6429 54.6661 12.6429C54.6478 12.6429 54.6319 12.6445 54.6232 12.6508L54.453 12.7548L54.3186 12.6357C54.3027 12.6125 54.2971 12.5588 54.3369 12.5189L54.6478 12.1685L54.2804 11.7374L54.7949 11.9974L54.9515 11.8062C54.9945 11.8486 54.9762 11.9598 54.9762 11.9598C55.1368 11.9638 55.5868 12.2141 55.6107 12.798C55.6123 12.8156 55.6123 12.8356 55.6123 12.8548C55.6123 12.8548 55.6163 12.862 55.6242 12.874C55.656 12.918 55.7435 13.0308 55.8548 13.0412L56.5656 13.1116H56.5688C56.6467 13.1116 56.8018 13.0196 57.0006 13.0196C57.1087 13.0196 57.2296 13.0476 57.3584 13.1292C57.3584 13.1292 57.4228 13.078 57.5278 13.0724C57.5357 13.0716 57.5444 13.0716 57.5524 13.0716C57.8713 13.0716 58.0033 13.3612 58.1742 13.6019C58.303 13.7851 58.4747 14.0571 58.4747 14.0571C58.4112 14.133 58.3523 14.1746 58.2537 14.1746C58.2267 14.1746 58.1957 14.1722 58.1623 14.1659C57.8204 14.1026 57.7711 13.3955 57.5762 13.3396C57.5659 13.3364 57.5548 13.3356 57.5453 13.3356C57.4824 13.3356 57.4546 13.3915 57.4546 13.3915C57.5436 13.6323 57.492 13.7299 57.5874 13.9155C57.659 14.053 57.7862 14.1667 57.8386 14.2202C57.8386 14.2202 57.8243 14.3258 57.8092 14.4042ZM53.9918 13.7291L54.0244 13.8115C54.0029 13.8835 53.7564 13.9858 53.7564 13.9858L53.7032 13.8691C53.6467 13.7443 53.6586 13.5339 53.8304 13.4051L54.2295 13.1604L54.6526 13.2508C54.6446 13.386 54.7249 13.4868 54.7249 13.4868L54.2812 13.4011L54.0157 13.5859C53.9711 13.6171 53.968 13.6755 53.9918 13.7291ZM57.876 15.0785L57.9977 14.4402C58.004 14.4026 58.012 14.3586 58.0176 14.3218C58.0518 14.3362 58.0883 14.3482 58.1281 14.3554C58.1734 14.3642 58.2155 14.3682 58.2537 14.3682C58.4398 14.3682 58.5479 14.2698 58.6202 14.1858L58.7141 14.0762L58.6377 13.9563C58.6306 13.9443 58.462 13.6755 58.3316 13.4915C58.3062 13.4555 58.2815 13.4195 58.2569 13.3803C58.109 13.158 57.9237 12.8789 57.5524 12.8789L57.519 12.8796C57.4578 12.8836 57.4053 12.8956 57.3631 12.9116C57.2463 12.8564 57.1262 12.8284 57.0014 12.8284C56.8479 12.8284 56.7183 12.8708 56.6324 12.9005C56.6078 12.9076 56.5855 12.9156 56.568 12.9188L55.8739 12.85C55.8651 12.8484 55.8365 12.8316 55.8023 12.79V12.7868L55.9526 12.7261C55.9105 12.2229 55.4302 11.9134 55.1622 11.8086C55.1503 11.7582 55.1265 11.7078 55.0843 11.667L54.9348 11.5246L54.8036 11.683L54.7393 11.7638L53.7676 11.3622L54.3997 12.1605L54.15 12.5405C54.0586 12.6381 54.1596 12.7357 54.1596 12.7357L54.4172 12.914L54.6844 12.814C54.6939 12.814 54.7019 12.8164 54.7106 12.8172C54.6979 12.858 54.6812 13.018 54.6701 13.0628L54.2065 12.9708L53.719 13.2476C53.4686 13.4324 53.4344 13.7387 53.5274 13.9483L53.5815 14.0674L53.6586 14.2354L53.8288 14.1642L53.8351 14.161C53.7739 14.3578 53.7986 14.545 53.9083 14.6681L54.0117 14.7994L54.1492 14.9745L54.3003 14.8113C54.3448 14.7666 54.4888 14.6042 54.5333 14.465L54.5659 14.3586L54.4919 14.277L54.48 14.2626L54.5627 14.125L55.1678 14.2682L55.3037 14.2994L55.3761 14.1794L55.4159 14.1138C55.423 14.1003 55.4254 14.0978 55.4532 14.0978C55.4747 14.0978 55.4962 14.1003 55.5193 14.1051C55.7474 14.1483 55.9581 14.1699 56.145 14.1699C56.3263 14.1699 56.4344 14.1627 56.5641 14.1195C56.5641 14.1195 56.8893 14.4906 56.9004 14.505L56.7016 15.1225L56.6928 15.1601C56.316 15.1905 56.1323 15.2737 55.9105 15.4969C55.5884 15.1753 55.3602 15.1417 54.4943 15.1417C53.4582 15.1417 52.7561 14.5306 52.7561 13.5547V11.1687H59.0631L59.0648 13.5547C59.0655 14.3466 58.6036 14.8985 57.876 15.0785ZM59.2397 7.31881C59.1434 7.5748 59.0631 7.85234 59.0631 8.12829L59.0639 9.90884C58.6942 9.84643 58.6505 9.44571 58.6489 9.42811L58.6417 9.34652L58.5622 9.33933C58.4016 9.3241 58.2951 9.25537 58.2052 9.16734C58.0239 8.98495 58.0239 8.68665 58.0239 8.68665C58.0215 8.7018 57.8243 8.97937 58.0533 9.28254C58.1496 9.41051 58.2887 9.48889 58.4692 9.52013C58.5113 9.74246 58.6759 10.056 59.0639 10.104V10.9759H57.973C57.4697 10.6943 57.6828 10.1984 57.6931 10.1776L57.7361 10.0832L57.6399 10.0465C57.0952 9.84323 57.2447 9.29614 57.2526 9.27297L57.2749 9.19296L57.201 9.15777C56.7509 8.94821 56.8121 8.3827 56.8177 8.35944C56.6794 8.47227 56.6293 8.70263 56.7247 8.9282C56.673 8.9874 56.6038 9.05934 56.5283 9.13776C56.0623 9.01856 56.048 8.58743 56.048 8.56746L56.0472 8.50106L55.986 8.47705C55.8039 8.40903 55.6791 8.30748 55.6179 8.17069C55.5487 8.0195 55.5733 7.86112 55.5924 7.78515C55.6457 7.79713 55.699 7.80595 55.7499 7.80994C55.8023 7.81552 55.8564 7.81872 55.9105 7.81872H55.9137H55.9176C55.9717 7.81872 56.0249 7.81552 56.0775 7.80994C56.3677 7.78115 56.6928 7.65555 57.0316 7.31798L59.2397 7.31881ZM57.5397 5.51905L57.9706 5.77104H57.977L58.0851 5.83424C57.8418 5.90222 57.6557 6.02461 57.4999 6.18537C57.4944 6.1902 57.4888 6.19656 57.4832 6.20218C57.4474 6.24058 57.4117 6.28218 57.3783 6.32454C57.3719 6.33256 57.3655 6.34134 57.3584 6.35016C57.325 6.39335 57.294 6.43736 57.2638 6.48375C57.259 6.49174 57.2534 6.49973 57.2479 6.50692C57.2121 6.56051 57.1779 6.61813 57.1437 6.67729C56.8368 7.20923 56.347 7.52679 55.9112 7.52758C55.4763 7.52679 54.9865 7.20923 54.6796 6.67729C54.6462 6.61975 54.6128 6.56371 54.577 6.5093C54.5698 6.49894 54.5635 6.48853 54.5571 6.47976C54.5269 6.43574 54.4967 6.39256 54.4657 6.35174C54.4578 6.34055 54.4506 6.33177 54.4426 6.32216C54.4093 6.28135 54.3751 6.24058 54.3408 6.20297C54.3337 6.19739 54.329 6.1902 54.3218 6.18375C54.1652 6.02299 53.9799 5.90139 53.7358 5.83424L53.8455 5.77104H53.8503L54.2812 5.51905L54.7241 5.26394L55.9072 5.91179L55.9097 5.90942L55.9128 5.91179L57.096 5.26394L57.5397 5.51905ZM56.9561 4.98233L56.013 5.48223V3.45856L57.2924 3.02182L56.9561 4.98233ZM55.9105 3.23621L54.5078 2.67867C54.6271 2.39471 55.1773 2.15314 55.9105 2.15236C56.6444 2.15314 57.1946 2.39471 57.3131 2.67867L55.9105 3.23621Z" fill="black"/>
<path d="M55.9248 16.8905H55.9232H55.9113H55.8978H55.897C55.4525 16.8937 54.841 16.8017 54.546 16.7153L54.1914 17.6808C54.4252 17.7648 55.2171 17.9248 55.9113 17.9248C56.6038 17.9248 57.3966 17.764 57.6296 17.6808L57.2758 16.7153C56.9799 16.8025 56.3693 16.8937 55.9248 16.8905Z" fill="white"/>
<path d="M58.608 15.9304C58.344 16.0808 57.7548 16.3064 57.4121 16.4112L57.6999 17.2086C58.2303 17.0631 58.6676 16.8927 59.0294 16.7103L58.4322 16.5103L58.608 15.9304Z" fill="white"/>
<path d="M53.2124 15.9304L53.3889 16.5103L52.791 16.7103C53.152 16.8927 53.5917 17.0631 54.1196 17.2086L54.4075 16.4112C54.0664 16.3064 53.4764 16.08 53.2124 15.9304Z" fill="white"/>
<path d="M64.3483 6.40756C64.4198 6.43236 64.493 6.44355 64.5653 6.44355C64.8778 6.44355 65.18 6.24036 65.2841 6.00759C65.2841 6.00759 64.7108 5.97239 64.0946 5.34289C63.8982 5.13891 63.6907 5.07812 63.5126 5.07812C63.2359 5.07812 63.0283 5.22528 63.0283 5.22528C63.7726 5.62367 63.9245 6.26357 64.3483 6.40756Z" fill="white"/>
<path d="M47.2561 6.44355C47.3284 6.44355 47.4016 6.43236 47.4716 6.40756C47.897 6.26357 48.0497 5.62367 48.7939 5.22528C48.7939 5.22528 48.5855 5.07812 48.3104 5.07812C48.1315 5.07812 47.924 5.13891 47.7268 5.34289C47.1114 5.97239 46.5381 6.00759 46.5381 6.00759C46.6406 6.24036 46.9436 6.44355 47.2561 6.44355Z" fill="white"/>
<path d="M64.5484 9.00647C64.5611 9.00722 64.5723 9.00722 64.5858 9.00722C65.3658 9.00722 65.6306 8.16658 65.6306 8.16658H65.6155C65.4723 8.16658 64.3122 8.13297 63.4924 7.08431C62.9525 6.39482 62.5105 5.78849 61.6366 5.55014L61.5507 5.53492L61.5316 5.44697C61.5078 5.31255 61.5992 5.18699 61.8068 5.05103C63.0122 4.25673 62.194 3.24405 62.194 3.24405C62.194 3.24405 61.8497 4.05434 61.0792 4.05434C61.0609 4.05434 61.0411 4.05354 61.022 4.05354C60.9345 4.04876 60.8502 4.04556 60.7651 4.02717L60.6228 3.99917C60.6228 3.99917 60.8423 3.39846 60.3127 2.8465C59.9135 2.42978 59.4277 2.35938 59.147 2.35938C59.0055 2.35938 58.9157 2.3778 58.9157 2.3778C59.182 2.72814 59.3744 3.30887 59.0667 3.66717C58.8012 3.97516 58.1523 3.99035 58.1523 4.44948C58.1523 4.64386 58.3328 4.87105 58.6573 5.07499C59.6329 5.6933 60.6013 6.51322 61.0037 7.61222C61.507 8.98326 60.9401 9.89271 60.1306 10.4142C60.1306 10.4142 60.3843 10.6494 60.7524 10.679C60.8272 10.6862 60.9003 10.6894 60.9687 10.6894C61.7456 10.6894 62.1471 10.3231 62.1471 10.3231C62.1471 10.3231 62.0811 10.8294 61.6764 11.2997C61.3035 11.734 60.8137 11.9892 60.067 12.0004C60.067 12.0004 60.0432 12.3492 60.3739 12.6507C60.5854 12.8411 61.0745 12.9035 61.0745 12.9035C61.0745 12.9035 60.1593 13.0898 60.0583 14.4497C60.0034 15.1864 59.8165 15.4423 59.8165 15.4423H59.8332C61.957 15.4423 61.9022 13.6098 61.9022 13.6098C61.9022 13.6098 62.0501 14.1521 62.6425 14.2937C62.714 14.3129 62.7903 14.3201 62.8635 14.3201C63.0543 14.3201 63.2197 14.2753 63.2197 14.2753C63.2197 14.2753 62.9096 13.617 63.2173 12.6963C63.4726 11.9324 63.4312 11.3661 63.4312 11.3661C63.4312 11.3661 63.7175 11.8012 64.4268 11.8053H64.4339C65.0247 11.8053 65.2823 11.3549 65.2823 11.3549C63.8662 10.7638 64.0061 8.85528 64.0061 8.85528C64.0061 8.85528 64.1898 8.99287 64.5484 9.00647ZM64.1222 10.9997C63.5465 10.7142 63.1824 9.9559 63.0941 9.68236C62.9987 11.1861 62.2687 12.23 61.4156 13.2347C60.9727 13.7554 60.8184 14.2617 60.8184 14.2617C60.8184 14.2617 60.9035 13.6882 61.2867 13.221C62.0827 12.2588 62.8388 11.0613 62.8953 9.67674C62.9343 8.71046 62.687 7.92661 62.3013 7.2811C62.5168 7.95378 62.4866 8.77769 61.7543 9.54636C61.7543 9.54636 63.2118 7.78903 61.1739 5.98769C60.3581 5.30215 59.4659 4.87904 59.0063 4.57904C60.6665 5.12379 61.4768 4.52387 61.4768 4.52387C60.9464 4.98621 60.2602 4.97822 59.8349 4.91182C59.9501 4.96865 60.0702 5.02781 60.1998 5.09742C61.5992 5.86209 62.8571 7.1203 63.0718 8.86327V8.84967C63.3978 10.5606 64.1222 10.9997 64.1222 10.9997Z" fill="white"/>
<path d="M50.7456 12.9035C50.7456 12.9035 51.2346 12.8419 51.4461 12.6507C51.776 12.3492 51.753 12.0004 51.753 12.0004C51.0056 11.9901 50.5166 11.734 50.1413 11.3005C49.7398 10.8302 49.673 10.3238 49.673 10.3238C49.673 10.3238 50.0745 10.6902 50.8505 10.6902C50.9205 10.6902 50.9929 10.687 51.0676 10.6798C51.4358 10.6502 51.6902 10.415 51.6902 10.415C50.8808 9.89354 50.313 8.98326 50.8156 7.61222C51.2187 6.51401 52.1864 5.6933 53.162 5.07499C53.4864 4.87105 53.6669 4.64465 53.6669 4.44948C53.6669 3.99035 53.0189 3.97516 52.7533 3.66717C52.4456 3.30887 52.6388 2.72732 52.9044 2.3778C52.9044 2.3778 52.8161 2.35938 52.6738 2.35938C52.3939 2.35938 51.908 2.42978 51.5089 2.8465C50.9778 3.39846 51.198 3.99917 51.198 3.99917L51.0557 4.02717C50.9706 4.04556 50.8855 4.04876 50.7988 4.05354C50.779 4.05354 50.7615 4.05434 50.7424 4.05434C49.9703 4.05434 49.6276 3.24488 49.6276 3.24488C49.6276 3.24488 48.8094 4.25749 50.0141 5.05178C50.2216 5.18778 50.3122 5.31338 50.2884 5.44776L50.2693 5.53575L50.1818 5.55093C49.3096 5.78928 48.8667 6.39565 48.3268 7.08514C47.5086 8.13218 46.3501 8.16658 46.2054 8.16658H46.1895C46.1895 8.16658 46.4542 9.00722 47.2343 9.00722C47.247 9.00722 47.2581 9.00722 47.2716 9.00647C47.6303 8.99362 47.8147 8.85528 47.8147 8.85528C47.8147 8.85528 47.9531 10.763 46.5385 11.3549C46.5385 11.3549 46.7962 11.8053 47.3869 11.8053H47.3941C48.1041 11.8012 48.3896 11.3661 48.3896 11.3661C48.3896 11.3661 48.3482 11.9324 48.6027 12.6963C48.9104 13.617 48.6019 14.2753 48.6019 14.2753C48.6019 14.2753 48.7673 14.3201 48.9573 14.3201C49.0312 14.3201 49.1068 14.3129 49.1776 14.2937C49.7691 14.1521 49.9179 13.6098 49.9179 13.6098C49.9179 13.6098 49.8638 15.4423 51.9876 15.4423H52.0027C52.0027 15.4423 51.8166 15.1864 51.7626 14.4497C51.6608 13.0898 50.7456 12.9035 50.7456 12.9035ZM50.4045 13.2347C49.5513 12.23 48.8222 11.1861 48.7259 9.68236C48.6377 9.95507 48.2751 10.7142 47.6995 10.9997C47.6995 10.9997 48.423 10.5606 48.7482 8.84967V8.86327C48.9637 7.12113 50.2208 5.86209 51.621 5.09742C51.7491 5.02698 51.8707 4.96782 51.9852 4.91182C51.5598 4.97822 50.8736 4.98621 50.3433 4.52387C50.3433 4.52387 51.1535 5.12379 52.8129 4.57904C52.3533 4.87904 51.462 5.30215 50.6462 5.98769C48.6075 7.78903 50.0658 9.54636 50.0658 9.54636C49.3326 8.77686 49.3032 7.95378 49.5187 7.2811C49.1323 7.92736 48.8857 8.71046 48.9255 9.67674C48.9812 11.0613 49.7373 12.2588 50.5317 13.221C50.9157 13.6874 51.0024 14.2617 51.0024 14.2617C51.0024 14.2617 50.8465 13.7554 50.4045 13.2347Z" fill="white"/>
<path d="M54.7799 12.2039C54.7439 12.2006 54.7134 12.2287 54.7111 12.2638C54.7087 12.3006 54.7359 12.3318 54.7727 12.3326C54.8079 12.3358 54.8392 12.3086 54.8424 12.2726C54.8424 12.2374 54.8167 12.2046 54.7799 12.2039Z" fill="white"/>
<path d="M55.91 1.46298C56.6495 1.46298 57.2411 1.70936 57.5679 1.97252C57.5679 1.97252 57.6649 1.3846 57.9964 0.865476L57.4009 0.933457L57.0892 0.267149L56.4905 0.577518L55.91 0L55.3311 0.577518L54.7316 0.267149L54.4207 0.933457L53.8252 0.865476C54.1567 1.3846 54.2538 1.97252 54.2538 1.97252C54.5814 1.70936 55.1713 1.46298 55.91 1.46298ZM54.3937 1.16705L54.5591 1.18465L54.6306 1.03343L54.839 0.585495L55.2254 0.786269L55.3749 0.863092L55.4942 0.744693L55.9108 0.32875L56.3283 0.744693L56.4475 0.863092L56.597 0.786269L56.981 0.585495L57.1918 1.03343L57.2618 1.18465L57.4272 1.16705L57.5845 1.14784C57.5122 1.31181 57.459 1.46697 57.4208 1.59577C57.0041 1.36219 56.4618 1.22943 55.9092 1.22943C55.359 1.22943 54.8175 1.36219 54.3993 1.59577C54.3603 1.46697 54.3078 1.31102 54.2355 1.14784L54.3937 1.16705Z" fill="white"/>
<path d="M55.4316 6.1521V6.49766C55.5502 6.35284 55.7792 6.38246 55.7792 6.38246V6.88078C55.7792 6.88078 55.7712 7.12554 55.6845 7.23196H55.9326H56.1799C56.0948 7.12633 56.0861 6.88078 56.0861 6.88078V6.38246C56.0861 6.38246 56.315 6.35284 56.4328 6.49766V6.1521H55.9326H55.4316Z" fill="white"/>
<path d="M55.2194 4.10109C55.3776 4.22748 55.469 4.24828 55.4722 4.25065L55.5342 4.27944V3.95389L54.9521 3.70752C54.9521 3.70835 54.9577 3.89631 55.2194 4.10109Z" fill="white"/>
<path d="M56.6031 4.10109C56.8664 3.89631 56.8711 3.70752 56.8711 3.70752L56.2891 3.95389V4.27944L56.3503 4.25065C56.3543 4.24828 56.4449 4.22748 56.6031 4.10109Z" fill="white"/>
<path d="M57.651 2.77705C57.651 2.28354 56.8248 1.8396 55.9128 1.8396H55.9097H55.9072C54.9952 1.8396 54.1691 2.28354 54.1691 2.77705L54.1874 2.89866L54.5515 5.00155L54.1858 5.2151L53.2396 5.77104H53.2428C53.2428 5.77104 53.0297 5.88063 52.9311 5.94861C52.5709 6.2006 52.4946 6.56771 52.7037 6.71972C52.7554 6.42052 52.9907 6.10699 53.4312 6.10699C53.7485 6.10699 53.9902 6.27178 54.1858 6.51895C54.2359 6.58131 54.2836 6.64771 54.3281 6.71972C54.383 6.81009 54.4379 6.88926 54.4928 6.96606H52.0557C52.2346 7.32838 52.4047 7.71234 52.4047 8.12912V13.5555C52.4047 14.8689 53.409 15.496 54.4951 15.496C55.3348 15.496 55.4477 15.4577 55.9112 15.9216C56.3724 15.4569 56.4853 15.496 57.3258 15.496C58.4127 15.496 59.4154 14.8689 59.4154 13.5555V8.12912C59.4154 7.71234 59.5856 7.32838 59.7652 6.96606H57.3274C57.3815 6.89009 57.4363 6.81009 57.4912 6.71972C57.5365 6.64771 57.5834 6.58131 57.6327 6.51895C57.8299 6.27095 58.0708 6.10699 58.3881 6.10699C58.8286 6.10699 59.0631 6.41972 59.1156 6.71972C59.3247 6.56771 59.2492 6.2006 58.8866 5.94861C58.7896 5.88063 58.5765 5.77104 58.5765 5.77104H58.5797L57.6335 5.2151L57.2694 5.00155L57.6335 2.89866L57.651 2.77705ZM54.5277 3.02182L55.8079 3.45856V5.48148L54.8657 4.98157L54.5277 3.02182ZM54.7925 7.31881C55.0024 7.52916 55.2084 7.65959 55.404 7.73156C55.3785 7.83312 55.3451 8.04271 55.4397 8.25148C55.5169 8.41943 55.6568 8.54903 55.858 8.63544C55.8803 8.84341 56.0107 9.15615 56.3724 9.29456C56.2142 9.45532 56.0599 9.60646 55.9971 9.66808L54.5301 9.6449C54.4967 9.62805 54.4403 9.59049 54.4148 9.5369C54.4116 9.5297 54.4069 9.52571 54.4045 9.51768L54.6438 9.55687C54.6494 9.5577 54.6541 9.5577 54.6589 9.5577C54.705 9.5577 54.7456 9.52571 54.7535 9.47774C54.7615 9.42411 54.7257 9.37531 54.6741 9.36732L54.3799 9.32094L54.7066 8.18591L54.3973 7.53078L53.9012 8.05869L53.871 9.23935L53.5378 9.18656C53.4861 9.17616 53.4368 9.21456 53.4281 9.26656C53.4201 9.31852 53.4551 9.36732 53.5076 9.37693L53.6475 9.39853C53.5974 9.42732 53.5648 9.4497 53.5608 9.4529L53.5322 9.47291L53.5243 9.50811C53.4432 9.83923 53.6268 10.1536 53.8248 10.2944L53.8176 10.336C53.8097 10.3872 53.8208 10.4367 53.851 10.4784C53.8797 10.5208 53.9242 10.5464 53.9735 10.5551C53.9839 10.5568 53.995 10.5576 54.0045 10.5576C54.0904 10.5576 54.1652 10.4976 54.1866 10.4104C54.2606 10.4191 54.3281 10.4208 54.3742 10.4208H54.4132L56.3382 10.7703L56.3708 10.7487C56.5243 10.6407 57.1087 10.212 57.3003 10.0704C57.3528 10.116 57.4117 10.1576 57.4832 10.192C57.4212 10.4016 57.4172 10.7239 57.6629 10.9783H52.757V8.12987C52.757 7.85392 52.6766 7.57638 52.582 7.32044L54.7925 7.31881ZM57.1715 9.92481C56.9767 10.0688 56.4758 10.4367 56.2945 10.5648L54.5452 10.2488C54.5492 10.2328 54.5531 10.2176 54.5571 10.2016C54.5802 10.1104 54.6033 9.98563 54.6049 9.83923L56.075 9.86328L56.1029 9.83445C56.1251 9.81206 56.5911 9.35934 56.8288 9.09853C56.8853 9.16975 56.9561 9.23777 57.0483 9.29772C57.0165 9.47054 57.03 9.71688 57.1715 9.92481ZM54.2431 9.62011C54.2844 9.70727 54.3592 9.76568 54.4108 9.79846C54.4093 9.88004 54.4013 10.0072 54.3799 10.1192C54.3751 10.144 54.3687 10.1672 54.3615 10.1904C54.3576 10.2048 54.3536 10.2168 54.3504 10.2264C54.2733 10.2264 54.1214 10.2168 53.9974 10.1712C53.8598 10.12 53.6547 9.86644 53.7024 9.58728C53.762 9.5505 53.8996 9.47291 54.0284 9.47291C54.1278 9.47212 54.1954 9.5193 54.2431 9.62011ZM54.061 9.26893L54.0904 8.13549L54.3433 7.86594L54.5023 8.20031L54.189 9.28811L54.061 9.26893ZM57.1556 15.1449C57.0602 15.1449 56.972 15.1465 56.8924 15.1497L57.1007 14.4978C57.1334 14.4074 56.9688 14.2914 56.9012 14.1898C57.0038 14.2546 57.2694 14.3962 57.3974 14.453C57.3838 14.4738 57.1556 15.1449 57.1556 15.1449ZM57.8092 14.4042L57.6733 15.1177C57.5866 15.1297 57.4944 15.1361 57.3998 15.1401L57.5429 14.4538C57.5858 14.2498 57.0411 14.1866 56.7724 13.7859C56.6412 13.9347 56.3939 13.9786 56.1458 13.9786C55.9192 13.9786 55.6926 13.9419 55.555 13.9147C55.52 13.9091 55.4866 13.9051 55.4541 13.9051C55.3745 13.9051 55.3022 13.9299 55.2521 14.0147L55.2123 14.0818L54.4705 13.9058L54.286 14.213C54.2598 14.2626 54.2582 14.305 54.3003 14.3514L54.3504 14.4066C54.3162 14.5154 54.162 14.6794 54.162 14.6794L54.0514 14.541C53.964 14.4426 53.9783 14.2635 54.0697 14.097L54.3639 13.5971L54.9921 13.6883L54.8943 13.4643C54.7631 13.1684 54.9627 12.7916 54.9841 12.5749C54.977 12.6404 54.9173 12.6549 54.8473 12.6549C54.7838 12.6549 54.713 12.6429 54.6661 12.6429C54.6478 12.6429 54.6319 12.6445 54.6232 12.6508L54.453 12.7548L54.3186 12.6357C54.3027 12.6125 54.2971 12.5588 54.3369 12.5189L54.6478 12.1685L54.2804 11.7374L54.7949 11.9974L54.9515 11.8062C54.9945 11.8486 54.9762 11.9598 54.9762 11.9598C55.1368 11.9638 55.5868 12.2141 55.6107 12.798C55.6123 12.8156 55.6123 12.8356 55.6123 12.8548C55.6123 12.8548 55.6163 12.862 55.6242 12.874C55.656 12.918 55.7435 13.0308 55.8548 13.0412L56.5656 13.1116H56.5688C56.6467 13.1116 56.8018 13.0196 57.0006 13.0196C57.1087 13.0196 57.2296 13.0476 57.3584 13.1292C57.3584 13.1292 57.4228 13.078 57.5278 13.0724C57.5357 13.0716 57.5444 13.0716 57.5524 13.0716C57.8713 13.0716 58.0033 13.3612 58.1742 13.6019C58.303 13.7851 58.4747 14.0571 58.4747 14.0571C58.4112 14.133 58.3523 14.1746 58.2537 14.1746C58.2267 14.1746 58.1957 14.1722 58.1623 14.1659C57.8204 14.1026 57.7711 13.3955 57.5762 13.3396C57.5659 13.3364 57.5548 13.3356 57.5453 13.3356C57.4824 13.3356 57.4546 13.3915 57.4546 13.3915C57.5436 13.6323 57.492 13.7299 57.5874 13.9155C57.659 14.053 57.7862 14.1667 57.8386 14.2202C57.8386 14.2202 57.8243 14.3258 57.8092 14.4042ZM53.9918 13.7291L54.0244 13.8115C54.0029 13.8835 53.7564 13.9858 53.7564 13.9858L53.7032 13.8691C53.6467 13.7443 53.6586 13.5339 53.8304 13.4051L54.2295 13.1604L54.6526 13.2508C54.6446 13.386 54.7249 13.4868 54.7249 13.4868L54.2812 13.4011L54.0157 13.5859C53.9711 13.6171 53.968 13.6755 53.9918 13.7291ZM57.876 15.0785L57.9977 14.4402C58.004 14.4026 58.012 14.3586 58.0176 14.3218C58.0518 14.3362 58.0883 14.3482 58.1281 14.3554C58.1734 14.3642 58.2155 14.3682 58.2537 14.3682C58.4398 14.3682 58.5479 14.2698 58.6202 14.1858L58.7141 14.0762L58.6377 13.9563C58.6306 13.9443 58.462 13.6755 58.3316 13.4915C58.3062 13.4555 58.2815 13.4195 58.2569 13.3803C58.109 13.158 57.9237 12.8789 57.5524 12.8789L57.519 12.8796C57.4578 12.8836 57.4053 12.8956 57.3631 12.9116C57.2463 12.8564 57.1262 12.8284 57.0014 12.8284C56.8479 12.8284 56.7183 12.8708 56.6324 12.9005C56.6078 12.9076 56.5855 12.9156 56.568 12.9188L55.8739 12.85C55.8651 12.8484 55.8365 12.8316 55.8023 12.79V12.7868L55.9526 12.7261C55.9105 12.2229 55.4302 11.9134 55.1622 11.8086C55.1503 11.7582 55.1265 11.7078 55.0843 11.667L54.9348 11.5246L54.8036 11.683L54.7393 11.7638L53.7676 11.3622L54.3997 12.1605L54.15 12.5405C54.0586 12.6381 54.1596 12.7357 54.1596 12.7357L54.4172 12.914L54.6844 12.814C54.6939 12.814 54.7019 12.8164 54.7106 12.8172C54.6979 12.858 54.6812 13.018 54.6701 13.0628L54.2065 12.9708L53.719 13.2476C53.4686 13.4324 53.4344 13.7387 53.5274 13.9483L53.5815 14.0674L53.6586 14.2354L53.8288 14.1642L53.8351 14.161C53.7739 14.3578 53.7986 14.545 53.9083 14.6681L54.0117 14.7994L54.1492 14.9745L54.3003 14.8113C54.3448 14.7666 54.4888 14.6042 54.5333 14.465L54.5659 14.3586L54.4919 14.277L54.48 14.2626L54.5627 14.125L55.1678 14.2682L55.3037 14.2994L55.3761 14.1794L55.4159 14.1138C55.423 14.1003 55.4254 14.0978 55.4532 14.0978C55.4747 14.0978 55.4962 14.1003 55.5193 14.1051C55.7474 14.1483 55.9581 14.1699 56.145 14.1699C56.3263 14.1699 56.4344 14.1627 56.5641 14.1195C56.5641 14.1195 56.8893 14.4906 56.9004 14.505L56.7016 15.1225L56.6928 15.1601C56.316 15.1905 56.1323 15.2737 55.9105 15.4969C55.5884 15.1753 55.3602 15.1417 54.4943 15.1417C53.4582 15.1417 52.7561 14.5306 52.7561 13.5547V11.1687H59.0631L59.0648 13.5547C59.0655 14.3466 58.6036 14.8985 57.876 15.0785ZM59.2397 7.31881C59.1434 7.5748 59.0631 7.85234 59.0631 8.12829L59.0639 9.90884C58.6942 9.84643 58.6505 9.44571 58.6489 9.42811L58.6417 9.34652L58.5622 9.33933C58.4016 9.3241 58.2951 9.25537 58.2052 9.16734C58.0239 8.98495 58.0239 8.68665 58.0239 8.68665C58.0215 8.7018 57.8243 8.97937 58.0533 9.28254C58.1496 9.41051 58.2887 9.48889 58.4692 9.52013C58.5113 9.74246 58.6759 10.056 59.0639 10.104V10.9759H57.973C57.4697 10.6943 57.6828 10.1984 57.6931 10.1776L57.7361 10.0832L57.6399 10.0465C57.0952 9.84323 57.2447 9.29614 57.2526 9.27297L57.2749 9.19296L57.201 9.15777C56.7509 8.94821 56.8121 8.3827 56.8177 8.35944C56.6794 8.47227 56.6293 8.70263 56.7247 8.9282C56.673 8.9874 56.6038 9.05934 56.5283 9.13776C56.0623 9.01856 56.048 8.58743 56.048 8.56746L56.0472 8.50106L55.986 8.47705C55.8039 8.40903 55.6791 8.30748 55.6179 8.17069C55.5487 8.0195 55.5733 7.86112 55.5924 7.78515C55.6457 7.79713 55.699 7.80595 55.7499 7.80994C55.8023 7.81552 55.8564 7.81872 55.9105 7.81872H55.9137H55.9176C55.9717 7.81872 56.0249 7.81552 56.0775 7.80994C56.3677 7.78115 56.6928 7.65555 57.0316 7.31798L59.2397 7.31881ZM57.5397 5.51905L57.9706 5.77104H57.977L58.0851 5.83424C57.8418 5.90222 57.6557 6.02461 57.4999 6.18537C57.4944 6.1902 57.4888 6.19656 57.4832 6.20218C57.4474 6.24058 57.4117 6.28218 57.3783 6.32454C57.3719 6.33256 57.3655 6.34134 57.3584 6.35016C57.325 6.39335 57.294 6.43736 57.2638 6.48375C57.259 6.49174 57.2534 6.49973 57.2479 6.50692C57.2121 6.56051 57.1779 6.61813 57.1437 6.67729C56.8368 7.20923 56.347 7.52679 55.9112 7.52758C55.4763 7.52679 54.9865 7.20923 54.6796 6.67729C54.6462 6.61975 54.6128 6.56371 54.577 6.5093C54.5698 6.49894 54.5635 6.48853 54.5571 6.47976C54.5269 6.43574 54.4967 6.39256 54.4657 6.35174C54.4578 6.34055 54.4506 6.33177 54.4426 6.32216C54.4093 6.28135 54.3751 6.24058 54.3408 6.20297C54.3337 6.19739 54.329 6.1902 54.3218 6.18375C54.1652 6.02299 53.9799 5.90139 53.7358 5.83424L53.8455 5.77104H53.8503L54.2812 5.51905L54.7241 5.26394L55.9072 5.91179L55.9097 5.90942L55.9128 5.91179L57.096 5.26394L57.5397 5.51905ZM56.9561 4.98233L56.013 5.48223V3.45856L57.2924 3.02182L56.9561 4.98233ZM55.9105 3.23621L54.5078 2.67867C54.6271 2.39471 55.1773 2.15314 55.9105 2.15236C56.6444 2.15314 57.1946 2.39471 57.3131 2.67867L55.9105 3.23621Z" fill="white"/>
<path fill-rule="evenodd" clip-rule="evenodd" d="M76.4899 2.35522L75.867 4.08239H84.4984L85.1212 2.35522H76.4899ZM75.5554 4.94558L74.9325 6.67235H83.5639L84.1868 4.94558H75.5554ZM74.6229 7.53593L74 9.2627H82.6314L83.2538 7.53593H74.6229Z" fill="white"/>
<path fill-rule="evenodd" clip-rule="evenodd" d="M92.3501 9.92086V9.9573C92.7446 10.1039 93.1214 10.3602 93.3188 10.5248C93.9287 11.0373 94.198 11.7145 94.198 12.5931C94.198 14.0396 93.4444 15.0828 92.2065 15.4124C91.8297 15.5221 91.4352 15.559 90.6993 15.559H86.9502V4.97876H90.2691C90.9509 4.97876 91.4172 5.0152 91.8297 5.12493C93.0319 5.45451 93.8212 6.29668 93.8212 7.63262C93.8212 8.34664 93.57 8.95094 93.1575 9.3534C92.9781 9.53642 92.7269 9.75627 92.3501 9.92086ZM89.0312 11.0373V13.8198H90.4666C90.8967 13.8198 91.2916 13.7833 91.5789 13.5086C91.8658 13.2339 91.9914 12.8863 91.9914 12.4286C91.9914 12.0809 91.9015 11.7514 91.7221 11.5135C91.4172 11.1291 91.0404 11.0373 90.3947 11.0373H89.0312ZM89.0131 9.20683H90.1792C90.538 9.20683 90.7174 9.20683 90.8967 9.15197C91.3815 9.0054 91.6864 8.5665 91.6864 7.9622C91.6864 7.24858 91.3634 6.93702 90.8967 6.79085C90.6993 6.73599 90.5023 6.71756 90.1074 6.71756H89.0131V9.20683ZM97.3195 15.559V6.75401H94.3236V4.97876H102.648L102.056 6.75401H99.4005V15.559H97.3195ZM103.294 15.559V4.97876H110.039L109.448 6.75401H105.357V9.09711H107.025C108.371 9.09711 109.071 9.42669 109.555 9.84757C109.932 10.1772 110.578 10.9092 110.578 12.3557C110.578 13.7833 109.914 14.5702 109.358 14.9731C108.712 15.4304 108.03 15.559 106.649 15.559H103.294ZM105.357 13.7833H106.918C107.51 13.7833 107.869 13.6367 108.12 13.3072C108.245 13.1426 108.425 12.8494 108.425 12.3004C108.425 11.7514 108.245 11.3669 107.887 11.0922C107.672 10.9276 107.384 10.8363 106.9 10.8363H105.357V13.7833Z" fill="white"/>
<path fill-rule="evenodd" clip-rule="evenodd" d="M0.527926 12.6384L0.9994 12.8255L1.00165 12.8264C1.52307 13.0332 2.29257 13.3384 2.35718 13.3645C2.45233 13.403 2.55043 13.3443 2.58143 13.2561C2.59631 13.2147 2.75742 12.762 2.93096 12.2742L2.93123 12.2735C3.12382 11.7322 3.33164 11.1482 3.37191 11.0356H8.01828C8.04886 11.1216 8.17604 11.4817 8.31949 11.8879L8.32036 11.8904C8.53404 12.4955 8.78344 13.2017 8.80341 13.2561C8.83656 13.3477 8.93785 13.399 9.02793 13.3645C9.06934 13.3486 9.43727 13.2024 9.83306 13.0451C10.2967 12.8609 10.7987 12.6615 10.8587 12.6384C10.9696 12.5952 10.9868 12.4737 10.9604 12.4008C10.8669 12.1373 7.73082 3.35165 7.59612 2.97678C7.27899 2.09196 6.89972 1.20728 5.69215 1.20728C4.48512 1.20728 4.09182 2.10604 3.78619 2.97678C3.7065 3.20371 2.88371 5.50861 2.07179 7.78306C1.27148 10.025 0.48174 12.2373 0.424623 12.4008C0.39108 12.4927 0.434379 12.6019 0.527926 12.6384ZM5.6812 4.07567H5.70058L7.27726 8.90172H4.10974L5.6812 4.07567ZM0.176003 16.9278H11.2083C11.305 16.9278 11.3829 17.0108 11.3829 17.1126V19.1651C11.3829 19.2677 11.305 19.3494 11.2083 19.3494H0.176003C0.0787136 19.3494 0 19.2677 0 19.1651V17.1126C0 17.0108 0.0787136 16.9278 0.176003 16.9278Z" fill="white"/>
</svg>
