<svg width="53" height="34" viewBox="0 0 53 34" fill="none" xmlns="http://www.w3.org/2000/svg">
<path fill-rule="evenodd" clip-rule="evenodd" d="M0 0H53V5.91304H0V0ZM17.7261 9.86097L17.1214 11.5755L14.4088 19.2684L14.0537 17.3564L12.8664 11.0156C12.6616 10.1417 12.0659 9.88195 11.3302 9.85156H5.86513L5.82031 10.1373C7.14969 10.4947 8.3384 11.0105 9.38025 11.6507L12.3941 23.6358L15.9802 23.6336L17.1214 20.6892L21.317 9.86097H17.7261ZM22.6886 9.84961L22.6334 10.2063L20.5684 23.6483H22.6334H23.9573L24.764 18.3976L26.0775 9.84961H24.764H22.6886ZM43.5769 18.7553C43.4431 18.0658 42.7922 14.7721 42.7922 14.7721L42.564 13.582C42.4714 13.8622 42.3411 14.2358 42.2442 14.5137C42.1623 14.7487 42.1042 14.9152 42.113 14.8987C42.113 14.8987 41.0443 17.9624 40.7637 18.7553H43.5769ZM47.6861 23.6533H44.5406C44.5406 23.6533 44.2296 22.0675 44.1276 21.5857C43.8659 21.5857 42.7714 21.5837 41.7425 21.5818L41.7382 21.5818C40.8275 21.5801 39.9693 21.5785 39.7871 21.5785C39.7671 21.6356 39.7347 21.729 39.6975 21.8368C39.49 22.4365 39.0749 23.6533 39.0749 23.6533H35.5156L39.6975 13.1448L40.5484 11.007C40.9041 10.1078 41.5123 9.86328 42.3245 9.86328H44.9433L47.6861 23.6533ZM35.7593 19.1398C35.7386 21.3542 34.3451 22.9581 32.069 23.5737C31.4023 23.7531 30.6645 23.853 29.8578 23.853C29.78 23.852 29.7025 23.8485 29.6251 23.845L29.625 23.8449C29.592 23.8435 29.5591 23.842 29.5261 23.8407C28.1278 23.7828 26.815 23.4739 26.082 23.1172L26.5564 20.0289L26.9922 20.2481C27.9106 20.6728 28.5663 20.8862 29.5261 20.9491C29.7309 20.9629 29.9454 20.9723 30.1846 20.9723C30.9513 20.9723 31.7539 20.7046 32.069 20.1418C32.1539 19.9899 32.2111 19.8206 32.2125 19.6245C32.2145 19.4372 32.1663 19.2672 32.069 19.1008C31.8525 18.7296 31.3651 18.3788 30.4535 17.9122C30.1577 17.7603 29.8399 17.5837 29.5261 17.379C28.476 16.6954 27.4693 15.6898 27.4859 14.1634C27.4969 12.6449 28.2595 11.3861 29.5261 10.5802C30.2308 10.131 31.0927 9.82351 32.069 9.68823C32.4359 9.63759 32.8172 9.60938 33.2143 9.60938C34.5271 9.60938 35.5807 9.91105 36.2509 10.1881L35.7924 13.1795L35.4876 13.0218C34.8622 12.7411 34.0603 12.4727 32.9516 12.4915C32.6103 12.4915 32.3173 12.5335 32.069 12.6036C31.3513 12.8062 31.0106 13.2533 31.01 13.6787C31.0037 14.1532 31.3954 14.5084 32.069 14.915C32.3152 15.064 32.5958 15.2188 32.913 15.3903C34.8685 16.3749 35.7717 17.5671 35.7593 19.1398ZM53 28.0869H0V34H53V28.0869Z" fill="white"/>
</svg>
